<mxfile host="Electron" modified="2024-06-19T07:55:36.513Z" agent="Mozilla/5.0 (Windows NT 10.0; Win64; x64) AppleWebKit/537.36 (KHTML, like Gecko) draw.io/24.4.8 Chrome/124.0.6367.207 Electron/30.0.6 Safari/537.36" etag="KKgdgIfpeRdRbKlv75eW" version="24.4.8" type="device">
  <diagram name="Страница — 1" id="LDDiV4sWsg-1LrhXazHE">
    <mxGraphModel dx="1395" dy="712" grid="1" gridSize="10" guides="1" tooltips="1" connect="1" arrows="1" fold="1" page="1" pageScale="1" pageWidth="827" pageHeight="1169" math="0" shadow="0">
      <root>
        <mxCell id="0" />
        <mxCell id="1" parent="0" />
        <mxCell id="_H8PyPT_IZnhRKHFAVXN-1" value="Пользователь" style="shape=umlActor;verticalLabelPosition=bottom;verticalAlign=top;html=1;" parent="1" vertex="1">
          <mxGeometry x="100" y="360" width="30" height="60" as="geometry" />
        </mxCell>
        <mxCell id="_H8PyPT_IZnhRKHFAVXN-2" value="Запустить программу" style="ellipse;whiteSpace=wrap;html=1;" parent="1" vertex="1">
          <mxGeometry x="210" y="350" width="140" height="70" as="geometry" />
        </mxCell>
        <mxCell id="0V17vzB8R0esJhWpNjQI-12" style="edgeStyle=orthogonalEdgeStyle;rounded=0;orthogonalLoop=1;jettySize=auto;html=1;entryX=0;entryY=0.5;entryDx=0;entryDy=0;" edge="1" parent="1" source="_H8PyPT_IZnhRKHFAVXN-3" target="_H8PyPT_IZnhRKHFAVXN-2">
          <mxGeometry relative="1" as="geometry" />
        </mxCell>
        <mxCell id="_H8PyPT_IZnhRKHFAVXN-3" value="" style="line;strokeWidth=1;fillColor=none;align=left;verticalAlign=middle;spacingTop=-1;spacingLeft=3;spacingRight=3;rotatable=0;labelPosition=right;points=[];portConstraint=eastwest;strokeColor=inherit;" parent="1" vertex="1">
          <mxGeometry x="140" y="381" width="60" height="8" as="geometry" />
        </mxCell>
        <mxCell id="0V17vzB8R0esJhWpNjQI-2" value="Запустить таймер&lt;div&gt;работы&lt;/div&gt;" style="ellipse;whiteSpace=wrap;html=1;" vertex="1" parent="1">
          <mxGeometry x="450" y="350" width="140" height="70" as="geometry" />
        </mxCell>
        <mxCell id="0V17vzB8R0esJhWpNjQI-4" value="Остановить таймер&lt;div&gt;работы&lt;/div&gt;" style="ellipse;whiteSpace=wrap;html=1;" vertex="1" parent="1">
          <mxGeometry x="687" y="260" width="140" height="70" as="geometry" />
        </mxCell>
        <mxCell id="0V17vzB8R0esJhWpNjQI-22" value="" style="edgeStyle=orthogonalEdgeStyle;rounded=0;orthogonalLoop=1;jettySize=auto;html=1;" edge="1" parent="1" source="0V17vzB8R0esJhWpNjQI-5" target="0V17vzB8R0esJhWpNjQI-21">
          <mxGeometry relative="1" as="geometry" />
        </mxCell>
        <mxCell id="0V17vzB8R0esJhWpNjQI-5" value="Дождаться окончания таймера работы" style="ellipse;whiteSpace=wrap;html=1;" vertex="1" parent="1">
          <mxGeometry x="687" y="355" width="140" height="70" as="geometry" />
        </mxCell>
        <mxCell id="0V17vzB8R0esJhWpNjQI-7" value="&amp;lt;&amp;lt;extend&amp;gt;&amp;gt;" style="endArrow=open;endSize=12;dashed=1;html=1;rounded=0;exitX=0.008;exitY=0.66;exitDx=0;exitDy=0;exitPerimeter=0;entryX=0.932;entryY=0.169;entryDx=0;entryDy=0;entryPerimeter=0;" edge="1" parent="1" source="0V17vzB8R0esJhWpNjQI-4" target="0V17vzB8R0esJhWpNjQI-2">
          <mxGeometry width="160" relative="1" as="geometry">
            <mxPoint x="630" y="300" as="sourcePoint" />
            <mxPoint x="790" y="300" as="targetPoint" />
          </mxGeometry>
        </mxCell>
        <mxCell id="0V17vzB8R0esJhWpNjQI-8" value="&amp;lt;&amp;lt;extend&amp;gt;&amp;gt;" style="endArrow=open;endSize=12;dashed=1;html=1;rounded=0;exitX=0;exitY=0.5;exitDx=0;exitDy=0;entryX=1;entryY=0.5;entryDx=0;entryDy=0;" edge="1" parent="1" source="0V17vzB8R0esJhWpNjQI-5" target="0V17vzB8R0esJhWpNjQI-2">
          <mxGeometry width="160" relative="1" as="geometry">
            <mxPoint x="698" y="316" as="sourcePoint" />
            <mxPoint x="650" y="377" as="targetPoint" />
          </mxGeometry>
        </mxCell>
        <mxCell id="0V17vzB8R0esJhWpNjQI-14" value="Открыть настройки таймера" style="ellipse;whiteSpace=wrap;html=1;" vertex="1" parent="1">
          <mxGeometry x="440" y="230" width="140" height="70" as="geometry" />
        </mxCell>
        <mxCell id="0V17vzB8R0esJhWpNjQI-15" value="Открыть статистику" style="ellipse;whiteSpace=wrap;html=1;" vertex="1" parent="1">
          <mxGeometry x="414" y="480" width="140" height="70" as="geometry" />
        </mxCell>
        <mxCell id="0V17vzB8R0esJhWpNjQI-16" value="&amp;lt;&amp;lt;extend&amp;gt;&amp;gt;" style="endArrow=open;endSize=12;dashed=1;html=1;rounded=0;" edge="1" parent="1" source="0V17vzB8R0esJhWpNjQI-15" target="_H8PyPT_IZnhRKHFAVXN-2">
          <mxGeometry width="160" relative="1" as="geometry">
            <mxPoint x="420" y="510" as="sourcePoint" />
            <mxPoint x="580" y="510" as="targetPoint" />
          </mxGeometry>
        </mxCell>
        <mxCell id="0V17vzB8R0esJhWpNjQI-17" value="&amp;lt;&amp;lt;extend&amp;gt;&amp;gt;" style="endArrow=open;endSize=12;dashed=1;html=1;rounded=0;" edge="1" parent="1" source="0V17vzB8R0esJhWpNjQI-2" target="_H8PyPT_IZnhRKHFAVXN-2">
          <mxGeometry width="160" relative="1" as="geometry">
            <mxPoint x="448" y="455" as="sourcePoint" />
            <mxPoint x="330" y="381" as="targetPoint" />
          </mxGeometry>
        </mxCell>
        <mxCell id="0V17vzB8R0esJhWpNjQI-18" value="&amp;lt;&amp;lt;extend&amp;gt;&amp;gt;" style="endArrow=open;endSize=12;dashed=1;html=1;rounded=0;" edge="1" parent="1" source="0V17vzB8R0esJhWpNjQI-14" target="_H8PyPT_IZnhRKHFAVXN-2">
          <mxGeometry width="160" relative="1" as="geometry">
            <mxPoint x="438" y="334" as="sourcePoint" />
            <mxPoint x="320" y="260" as="targetPoint" />
          </mxGeometry>
        </mxCell>
        <mxCell id="0V17vzB8R0esJhWpNjQI-19" value="Добавить новый таймер" style="ellipse;whiteSpace=wrap;html=1;" vertex="1" parent="1">
          <mxGeometry x="680" y="460" width="140" height="70" as="geometry" />
        </mxCell>
        <mxCell id="0V17vzB8R0esJhWpNjQI-20" value="&amp;lt;&amp;lt;extend&amp;gt;&amp;gt;" style="endArrow=open;endSize=12;dashed=1;html=1;rounded=0;" edge="1" parent="1" source="0V17vzB8R0esJhWpNjQI-19" target="0V17vzB8R0esJhWpNjQI-2">
          <mxGeometry width="160" relative="1" as="geometry">
            <mxPoint x="677" y="465" as="sourcePoint" />
            <mxPoint x="580" y="460" as="targetPoint" />
          </mxGeometry>
        </mxCell>
        <mxCell id="0V17vzB8R0esJhWpNjQI-21" value="Запустить таймер перерыва" style="ellipse;whiteSpace=wrap;html=1;" vertex="1" parent="1">
          <mxGeometry x="890" y="355" width="140" height="70" as="geometry" />
        </mxCell>
        <mxCell id="0V17vzB8R0esJhWpNjQI-23" value="Остановить таймер&lt;div&gt;перерыва&lt;/div&gt;" style="ellipse;whiteSpace=wrap;html=1;" vertex="1" parent="1">
          <mxGeometry x="1101" y="260" width="140" height="70" as="geometry" />
        </mxCell>
        <mxCell id="0V17vzB8R0esJhWpNjQI-24" value="&amp;lt;&amp;lt;extend&amp;gt;&amp;gt;" style="endArrow=open;endSize=12;dashed=1;html=1;rounded=0;" edge="1" parent="1" source="0V17vzB8R0esJhWpNjQI-23" target="0V17vzB8R0esJhWpNjQI-21">
          <mxGeometry width="160" relative="1" as="geometry">
            <mxPoint x="1138" y="316" as="sourcePoint" />
            <mxPoint x="1030" y="372" as="targetPoint" />
          </mxGeometry>
        </mxCell>
        <mxCell id="0V17vzB8R0esJhWpNjQI-25" value="Открыть графические настройки" style="ellipse;whiteSpace=wrap;html=1;" vertex="1" parent="1">
          <mxGeometry x="410" y="110" width="140" height="70" as="geometry" />
        </mxCell>
        <mxCell id="0V17vzB8R0esJhWpNjQI-27" value="&amp;lt;&amp;lt;extend&amp;gt;&amp;gt;" style="endArrow=open;endSize=12;dashed=1;html=1;rounded=0;" edge="1" parent="1" source="0V17vzB8R0esJhWpNjQI-25" target="_H8PyPT_IZnhRKHFAVXN-2">
          <mxGeometry width="160" relative="1" as="geometry">
            <mxPoint x="445" y="302" as="sourcePoint" />
            <mxPoint x="335" y="368" as="targetPoint" />
          </mxGeometry>
        </mxCell>
        <mxCell id="0V17vzB8R0esJhWpNjQI-29" value="Дождаться окончания таймера работы" style="ellipse;whiteSpace=wrap;html=1;" vertex="1" parent="1">
          <mxGeometry x="1171" y="350" width="140" height="70" as="geometry" />
        </mxCell>
        <mxCell id="0V17vzB8R0esJhWpNjQI-31" value="&amp;lt;&amp;lt;extend&amp;gt;&amp;gt;" style="endArrow=open;endSize=12;dashed=1;html=1;rounded=0;" edge="1" parent="1" source="0V17vzB8R0esJhWpNjQI-29" target="0V17vzB8R0esJhWpNjQI-21">
          <mxGeometry width="160" relative="1" as="geometry">
            <mxPoint x="1129" y="328" as="sourcePoint" />
            <mxPoint x="1022" y="377" as="targetPoint" />
          </mxGeometry>
        </mxCell>
        <mxCell id="0V17vzB8R0esJhWpNjQI-32" value="Пользователь" style="shape=umlActor;verticalLabelPosition=bottom;verticalAlign=top;html=1;" vertex="1" parent="1">
          <mxGeometry x="100" y="880" width="30" height="60" as="geometry" />
        </mxCell>
        <mxCell id="0V17vzB8R0esJhWpNjQI-33" value="Запустить программу" style="ellipse;whiteSpace=wrap;html=1;" vertex="1" parent="1">
          <mxGeometry x="210" y="870" width="140" height="70" as="geometry" />
        </mxCell>
        <mxCell id="0V17vzB8R0esJhWpNjQI-34" style="edgeStyle=orthogonalEdgeStyle;rounded=0;orthogonalLoop=1;jettySize=auto;html=1;entryX=0;entryY=0.5;entryDx=0;entryDy=0;" edge="1" parent="1" source="0V17vzB8R0esJhWpNjQI-35" target="0V17vzB8R0esJhWpNjQI-33">
          <mxGeometry relative="1" as="geometry" />
        </mxCell>
        <mxCell id="0V17vzB8R0esJhWpNjQI-35" value="" style="line;strokeWidth=1;fillColor=none;align=left;verticalAlign=middle;spacingTop=-1;spacingLeft=3;spacingRight=3;rotatable=0;labelPosition=right;points=[];portConstraint=eastwest;strokeColor=inherit;" vertex="1" parent="1">
          <mxGeometry x="140" y="901" width="60" height="8" as="geometry" />
        </mxCell>
        <mxCell id="0V17vzB8R0esJhWpNjQI-36" value="Запустить таймер&lt;div&gt;работы&lt;/div&gt;" style="ellipse;whiteSpace=wrap;html=1;" vertex="1" parent="1">
          <mxGeometry x="450" y="870" width="140" height="70" as="geometry" />
        </mxCell>
        <mxCell id="0V17vzB8R0esJhWpNjQI-37" value="Остановить таймер&lt;div&gt;работы&lt;/div&gt;" style="ellipse;whiteSpace=wrap;html=1;" vertex="1" parent="1">
          <mxGeometry x="687" y="780" width="140" height="70" as="geometry" />
        </mxCell>
        <mxCell id="0V17vzB8R0esJhWpNjQI-38" value="" style="edgeStyle=orthogonalEdgeStyle;rounded=0;orthogonalLoop=1;jettySize=auto;html=1;exitX=1;exitY=0.5;exitDx=0;exitDy=0;" edge="1" parent="1" source="0V17vzB8R0esJhWpNjQI-36" target="0V17vzB8R0esJhWpNjQI-49">
          <mxGeometry relative="1" as="geometry">
            <mxPoint x="827" y="910" as="sourcePoint" />
          </mxGeometry>
        </mxCell>
        <mxCell id="0V17vzB8R0esJhWpNjQI-40" value="&amp;lt;&amp;lt;extend&amp;gt;&amp;gt;" style="endArrow=open;endSize=12;dashed=1;html=1;rounded=0;exitX=0.008;exitY=0.66;exitDx=0;exitDy=0;exitPerimeter=0;entryX=0.932;entryY=0.169;entryDx=0;entryDy=0;entryPerimeter=0;" edge="1" parent="1" source="0V17vzB8R0esJhWpNjQI-37" target="0V17vzB8R0esJhWpNjQI-36">
          <mxGeometry width="160" relative="1" as="geometry">
            <mxPoint x="630" y="820" as="sourcePoint" />
            <mxPoint x="790" y="820" as="targetPoint" />
          </mxGeometry>
        </mxCell>
        <mxCell id="0V17vzB8R0esJhWpNjQI-42" value="Открыть настройки таймера" style="ellipse;whiteSpace=wrap;html=1;" vertex="1" parent="1">
          <mxGeometry x="440" y="750" width="140" height="70" as="geometry" />
        </mxCell>
        <mxCell id="0V17vzB8R0esJhWpNjQI-43" value="Открыть статистику" style="ellipse;whiteSpace=wrap;html=1;" vertex="1" parent="1">
          <mxGeometry x="414" y="1000" width="140" height="70" as="geometry" />
        </mxCell>
        <mxCell id="0V17vzB8R0esJhWpNjQI-44" value="&amp;lt;&amp;lt;extend&amp;gt;&amp;gt;" style="endArrow=open;endSize=12;dashed=1;html=1;rounded=0;" edge="1" parent="1" source="0V17vzB8R0esJhWpNjQI-43" target="0V17vzB8R0esJhWpNjQI-33">
          <mxGeometry width="160" relative="1" as="geometry">
            <mxPoint x="420" y="1030" as="sourcePoint" />
            <mxPoint x="580" y="1030" as="targetPoint" />
          </mxGeometry>
        </mxCell>
        <mxCell id="0V17vzB8R0esJhWpNjQI-45" value="&amp;lt;&amp;lt;extend&amp;gt;&amp;gt;" style="endArrow=open;endSize=12;dashed=1;html=1;rounded=0;" edge="1" parent="1" source="0V17vzB8R0esJhWpNjQI-36" target="0V17vzB8R0esJhWpNjQI-33">
          <mxGeometry width="160" relative="1" as="geometry">
            <mxPoint x="448" y="975" as="sourcePoint" />
            <mxPoint x="330" y="901" as="targetPoint" />
          </mxGeometry>
        </mxCell>
        <mxCell id="0V17vzB8R0esJhWpNjQI-46" value="&amp;lt;&amp;lt;extend&amp;gt;&amp;gt;" style="endArrow=open;endSize=12;dashed=1;html=1;rounded=0;" edge="1" parent="1" source="0V17vzB8R0esJhWpNjQI-42" target="0V17vzB8R0esJhWpNjQI-33">
          <mxGeometry width="160" relative="1" as="geometry">
            <mxPoint x="438" y="854" as="sourcePoint" />
            <mxPoint x="320" y="780" as="targetPoint" />
          </mxGeometry>
        </mxCell>
        <mxCell id="0V17vzB8R0esJhWpNjQI-47" value="Добавить новый таймер" style="ellipse;whiteSpace=wrap;html=1;" vertex="1" parent="1">
          <mxGeometry x="680" y="980" width="140" height="70" as="geometry" />
        </mxCell>
        <mxCell id="0V17vzB8R0esJhWpNjQI-48" value="&amp;lt;&amp;lt;extend&amp;gt;&amp;gt;" style="endArrow=open;endSize=12;dashed=1;html=1;rounded=0;" edge="1" parent="1" source="0V17vzB8R0esJhWpNjQI-47" target="0V17vzB8R0esJhWpNjQI-36">
          <mxGeometry width="160" relative="1" as="geometry">
            <mxPoint x="677" y="985" as="sourcePoint" />
            <mxPoint x="580" y="980" as="targetPoint" />
          </mxGeometry>
        </mxCell>
        <mxCell id="0V17vzB8R0esJhWpNjQI-49" value="Запустить таймер перерыва" style="ellipse;whiteSpace=wrap;html=1;" vertex="1" parent="1">
          <mxGeometry x="890" y="875" width="140" height="70" as="geometry" />
        </mxCell>
        <mxCell id="0V17vzB8R0esJhWpNjQI-50" value="Остановить таймер&lt;div&gt;перерыва&lt;/div&gt;" style="ellipse;whiteSpace=wrap;html=1;" vertex="1" parent="1">
          <mxGeometry x="1101" y="780" width="140" height="70" as="geometry" />
        </mxCell>
        <mxCell id="0V17vzB8R0esJhWpNjQI-51" value="&amp;lt;&amp;lt;extend&amp;gt;&amp;gt;" style="endArrow=open;endSize=12;dashed=1;html=1;rounded=0;" edge="1" parent="1" source="0V17vzB8R0esJhWpNjQI-50" target="0V17vzB8R0esJhWpNjQI-49">
          <mxGeometry width="160" relative="1" as="geometry">
            <mxPoint x="1138" y="836" as="sourcePoint" />
            <mxPoint x="1030" y="892" as="targetPoint" />
          </mxGeometry>
        </mxCell>
        <mxCell id="0V17vzB8R0esJhWpNjQI-52" value="Открыть графические настройки" style="ellipse;whiteSpace=wrap;html=1;" vertex="1" parent="1">
          <mxGeometry x="410" y="630" width="140" height="70" as="geometry" />
        </mxCell>
        <mxCell id="0V17vzB8R0esJhWpNjQI-53" value="&amp;lt;&amp;lt;extend&amp;gt;&amp;gt;" style="endArrow=open;endSize=12;dashed=1;html=1;rounded=0;" edge="1" parent="1" source="0V17vzB8R0esJhWpNjQI-52" target="0V17vzB8R0esJhWpNjQI-33">
          <mxGeometry width="160" relative="1" as="geometry">
            <mxPoint x="445" y="822" as="sourcePoint" />
            <mxPoint x="335" y="888" as="targetPoint" />
          </mxGeometry>
        </mxCell>
        <mxCell id="0V17vzB8R0esJhWpNjQI-54" value="Дождаться окончания таймера работы" style="ellipse;whiteSpace=wrap;html=1;" vertex="1" parent="1">
          <mxGeometry x="1171" y="870" width="140" height="70" as="geometry" />
        </mxCell>
        <mxCell id="0V17vzB8R0esJhWpNjQI-55" value="&amp;lt;&amp;lt;extend&amp;gt;&amp;gt;" style="endArrow=open;endSize=12;dashed=1;html=1;rounded=0;" edge="1" parent="1" source="0V17vzB8R0esJhWpNjQI-54" target="0V17vzB8R0esJhWpNjQI-49">
          <mxGeometry width="160" relative="1" as="geometry">
            <mxPoint x="1129" y="848" as="sourcePoint" />
            <mxPoint x="1022" y="897" as="targetPoint" />
          </mxGeometry>
        </mxCell>
      </root>
    </mxGraphModel>
  </diagram>
</mxfile>
